<svg width="22" height="22" viewBox="0 0 22 22" fill="none" xmlns="http://www.w3.org/2000/svg">
<path d="M22 9.9H17.413L20.977 6.336L19.426 4.774L14.3 9.9H12.1V7.7L17.226 2.574L15.664 1.023L12.1 4.587V0H9.9V4.587L6.336 1.023L4.774 2.574L9.9 7.7V9.9H7.7L2.574 4.774L1.023 6.336L4.587 9.9H0V12.1H4.587L1.023 15.664L2.574 17.226L7.7 12.1H9.9V14.3L4.774 19.426L6.336 20.977L9.9 17.413V22H12.1V17.413L15.664 20.977L17.226 19.426L12.1 14.3V12.1H14.3L19.426 17.226L20.977 15.664L17.413 12.1H22V9.9Z" fill="black"/>
</svg>
