<svg width="25" height="24" viewBox="0 0 25 24" fill="none" xmlns="http://www.w3.org/2000/svg">
<path d="M7.05491 10.5783L12.3672 12.0015L17.6795 13.4247L22.9912 14.8479C24.277 10.0498 22.1817 5.14174 18.1667 2.65277C17.2502 2.08525 16.2552 1.65556 15.2136 1.37749C14.0181 1.0559 12.7769 0.938763 11.5423 1.03104C7.01256 1.37199 2.98545 4.51812 1.74371 9.1551L7.05546 10.5783H7.05491Z" stroke="black" stroke-width="2" stroke-linecap="round" stroke-linejoin="round"/>
<path d="M15.2135 1.37744C15.2135 1.37744 12.1119 3.39292 10.3379 5.76421C8.56379 8.13549 8.1178 10.8626 8.1178 10.8626" stroke="black" stroke-width="2" stroke-linecap="round" stroke-linejoin="round"/>
<path d="M15.2134 1.37744C15.2134 1.37744 16.8924 4.67425 17.2427 7.61471C17.5941 10.5552 16.6163 13.1398 16.6163 13.1398" stroke="black" stroke-width="2" stroke-linecap="round" stroke-linejoin="round"/>
<path d="M1.74371 9.15503L7.05546 10.5782L12.3672 12.0015L17.6795 13.4247L22.9912 14.8479" stroke="black" stroke-width="2" stroke-linecap="round" stroke-linejoin="round"/>
<path d="M1.36865 23H23.3657" stroke="black" stroke-width="2" stroke-linecap="round" stroke-linejoin="round"/>
<path d="M12.367 12.0015L9.34241 23" stroke="black" stroke-width="2" stroke-linecap="round" stroke-linejoin="round"/>
<path d="M11.5424 1.03043C12.777 0.938334 14.0183 1.05566 15.2137 1.37743C16.2553 1.6555 17.2503 2.08519 18.1668 2.65271" stroke="black" stroke-width="2" stroke-linecap="round" stroke-linejoin="round"/>
</svg>
