<svg width="24" height="24" viewBox="0 0 24 24" fill="none" xmlns="http://www.w3.org/2000/svg">
<path d="M13.4396 17.4591C13.4126 17.0703 13.0755 16.777 12.6867 16.804C12.298 16.831 12.0046 17.168 12.0316 17.5569L12.0788 18.2368C12.1058 18.6251 12.4423 18.9188 12.8317 18.8919C13.2205 18.8649 13.5138 18.5278 13.4868 18.139L13.4396 17.4591Z" fill="black"/>
<path d="M16.7841 15.7218C16.6267 15.3652 16.2101 15.2037 15.8536 15.361C15.497 15.5183 15.3355 15.9349 15.4928 16.2915L15.7516 16.878C15.9088 17.2345 16.3254 17.3962 16.682 17.2388C17.0386 17.0815 17.2001 16.6649 17.0428 16.3084L16.7841 15.7218Z" fill="black"/>
<path d="M20.0519 14.0183C19.7831 13.7363 19.3363 13.7257 19.0542 13.9947C18.7722 14.2636 18.7616 14.7103 19.0306 14.9924L19.5009 15.4855C19.7698 15.7675 20.2165 15.7783 20.4986 15.5092C20.7807 15.2402 20.7912 14.7935 20.5223 14.5115L20.0519 14.0183Z" fill="black"/>
<path d="M12.5968 21.1054C12.2076 21.1245 11.9074 21.4555 11.9264 21.8447L11.9608 22.5483C11.9798 22.9376 12.3109 23.2378 12.7001 23.2187C13.0893 23.1997 13.3895 22.8687 13.3705 22.4795L13.3361 21.7758C13.3171 21.3865 12.9859 21.0867 12.5968 21.1054Z" fill="black"/>
<path d="M16.6966 20.1145C16.5859 19.7408 16.1931 19.5277 15.8195 19.6385C15.4458 19.7493 15.2327 20.142 15.3435 20.5157L15.5319 21.1513C15.6428 21.5254 16.0359 21.738 16.4091 21.6273C16.7827 21.5166 16.9959 21.1238 16.8851 20.7501L16.6966 20.1145Z" fill="black"/>
<path d="M20.0132 18.4554C19.8119 18.1216 19.3782 18.0143 19.0445 18.2156C18.7107 18.4169 18.6034 18.8507 18.8047 19.1844L19.1472 19.7521C19.3484 20.0858 19.7822 20.1932 20.1159 19.9918C20.4497 19.7905 20.557 19.3568 20.3557 19.0231L20.0132 18.4554Z" fill="black"/>
<path d="M23.7949 17.3271L23.2984 16.8273C23.0237 16.5509 22.577 16.5494 22.3004 16.8241C22.0239 17.0988 22.0225 17.5456 22.2972 17.8221L22.7937 18.3218C23.0681 18.598 23.515 18.6 23.7917 18.325C24.0681 18.0503 24.0696 17.6035 23.7949 17.3271Z" fill="black"/>
<path d="M20.2483 9.37429L20.0346 8.89443C19.6815 8.1011 18.8434 7.67228 18.0237 7.80067L17.8919 7.50457C17.1242 5.78055 15.3153 4.83117 13.5082 5.12022L13.0446 4.06692C11.9571 1.59639 9.51015 0 6.81074 0C3.05526 0 0 3.05531 0 6.81074V23.2874C0 23.6771 0.315956 23.9931 0.705679 23.9931H3.52839C3.91812 23.9931 4.23407 23.6771 4.23407 23.2874V6.81074C4.23407 5.38998 5.38998 4.23407 6.81074 4.23407C7.83205 4.23407 8.7578 4.83795 9.16922 5.77269L9.6671 6.90347C8.37307 8.07683 7.95215 9.96395 8.68216 11.6044L8.81407 11.9004C8.18216 12.413 7.9227 13.3169 8.28279 14.1258L8.49642 14.6056C8.96339 15.6547 10.1929 16.134 11.2507 15.6631L19.1908 12.1286C20.2417 11.6608 20.7161 10.4252 20.2483 9.37429ZM16.6026 8.07861L16.7079 8.31535L10.077 11.2671L9.97153 11.0303C9.37005 9.67862 9.9624 8.09155 11.3353 7.47935L13.0498 6.71562C14.4426 6.09956 16.0062 6.73928 16.6026 8.07861ZM6.81074 2.82272C4.61175 2.82272 2.82272 4.61175 2.82272 6.81074V22.5817H1.41136V6.81074C1.41136 3.83353 3.83353 1.41136 6.81074 1.41136C8.95083 1.41136 10.8907 2.67692 11.7529 4.63551L12.1624 5.56588L10.8731 6.14021L10.4609 5.2041C9.82427 3.75746 8.39146 2.82272 6.81074 2.82272V2.82272ZM18.6168 10.8392L10.6767 14.3738C10.3359 14.5254 9.93747 14.3725 9.78579 14.0317L9.57216 13.5518C9.46635 13.3142 9.57305 13.0363 9.81073 12.9305C10.4186 12.6599 17.9444 9.30979 18.124 9.22981C18.3611 9.12434 18.6398 9.23132 18.7454 9.46838L18.959 9.94824C19.1103 10.2882 18.9568 10.6879 18.6168 10.8392V10.8392Z" fill="black"/>
</svg>
