<svg width="21" height="24" viewBox="0 0 21 24" fill="none" xmlns="http://www.w3.org/2000/svg">
<path d="M10.3689 0C10.6075 0 10.8364 0.0948068 11.0052 0.263564C11.1739 0.432322 11.2687 0.661206 11.2687 0.899865V2.40324H13.6684C14.8274 2.40324 15.7681 3.3439 15.7681 4.50292V10.802H18.4677C19.6267 10.802 20.5674 11.7426 20.5674 12.9017V21.9003C20.5674 22.4572 20.3461 22.9912 19.9524 23.385C19.5586 23.7788 19.0245 24 18.4677 24H2.2701C1.71322 24 1.17916 23.7788 0.785394 23.385C0.391626 22.9912 0.17041 22.4572 0.17041 21.9003V11.787C0.17041 11.0443 0.562751 10.3568 1.20226 9.9789L4.96969 7.75444V4.50292C4.96969 3.3439 5.91035 2.40324 7.06938 2.40324H9.46902V0.899865C9.46902 0.661206 9.56382 0.432322 9.73258 0.263564C9.90134 0.0948068 10.1302 0 10.3689 0ZM6.76942 7.22652C7.74127 7.3705 8.56915 8.19357 8.56915 9.307V22.2003H12.1686V12.9017C12.1686 12.3968 12.3506 11.9088 12.6811 11.5271C13.0116 11.1455 13.4686 10.8957 13.9683 10.8236V4.50292C13.9683 4.42337 13.9367 4.34708 13.8805 4.29082C13.8242 4.23457 13.7479 4.20297 13.6684 4.20297H7.06938C6.98982 4.20297 6.91353 4.23457 6.85728 4.29082C6.80102 4.34708 6.76942 4.42337 6.76942 4.50292V7.22652ZM14.2683 12.6029C14.1887 12.6029 14.1124 12.6345 14.0562 12.6908C13.9999 12.747 13.9683 12.8233 13.9683 12.9029V22.2015H18.4677C18.5472 22.2015 18.6235 22.1699 18.6798 22.1136C18.736 22.0574 18.7676 21.9811 18.7676 21.9015V12.9029C18.7676 12.8233 18.736 12.747 18.6798 12.6908C18.6235 12.6345 18.5472 12.6029 18.4677 12.6029H14.2683ZM6.31709 9.04784L2.11772 11.5291C2.073 11.5554 2.0359 11.593 2.01003 11.638C1.98416 11.683 1.97042 11.7339 1.97014 11.7858V21.9003C1.97014 22.0647 2.10452 22.2003 2.2701 22.2003H6.76942V9.3046C6.76935 9.25175 6.75531 9.19985 6.72873 9.15417C6.70215 9.10848 6.66397 9.07063 6.61806 9.04445C6.57215 9.01827 6.52013 9.00468 6.46728 9.00506C6.41443 9.00545 6.36261 9.01979 6.31709 9.04664V9.04784Z" fill="black"/>
</svg>
