<svg width="25" height="23" viewBox="0 0 25 23" fill="none" xmlns="http://www.w3.org/2000/svg">
<path d="M19.0306 16.903H9.49999L8.94658 14.6894H21.4428L24.1704 3.7793H6.21907L5.27425 0H0.17041V1.56562H4.05185L7.90535 16.9794C6.77786 17.2593 5.9395 18.2796 5.9395 19.4924C5.9395 20.9203 7.10111 22.0819 8.52893 22.0819C9.95669 22.0819 11.1183 20.9203 11.1183 19.4924C11.1183 19.1289 11.0427 18.7828 10.9069 18.4686H16.6527C16.5169 18.7828 16.4412 19.1289 16.4412 19.4924C16.4412 20.9203 17.6028 22.0819 19.0307 22.0819C20.4584 22.0819 21.6201 20.9203 21.6201 19.4924C21.62 18.0647 20.4584 16.903 19.0306 16.903ZM13.6249 13.1238H11.8868L11.4985 10.0171H13.6249V13.1238H13.6249ZM19.4788 5.34487H22.1652L21.3886 8.45152H19.0905L19.4788 5.34487ZM18.8948 10.0172H20.9971L20.2205 13.1238H18.5065L18.8948 10.0172ZM15.1905 5.34487H17.901L17.5127 8.45152H15.1905V5.34487H15.1905ZM15.1905 10.0171H17.317L16.9286 13.1238H15.1905V10.0171H15.1905ZM13.6249 5.34487V8.45152H11.3028L10.9144 5.34487H13.6249ZM6.61047 5.34487H9.33663L9.72494 8.45152H7.38714L6.61047 5.34487ZM7.77855 10.0171H9.92069L10.309 13.1238H8.55522L7.77855 10.0171ZM8.52893 20.5163C7.96441 20.5163 7.50513 20.057 7.50513 19.4925C7.50513 18.9279 7.96441 18.4687 8.52893 18.4687C9.09344 18.4687 9.55272 18.9279 9.55272 19.4925C9.55272 20.057 9.09344 20.5163 8.52893 20.5163ZM19.0306 20.5163C18.4661 20.5163 18.0068 20.057 18.0068 19.4925C18.0068 18.9279 18.4661 18.4687 19.0306 18.4687C19.5951 18.4687 20.0544 18.9279 20.0544 19.4925C20.0544 20.057 19.5951 20.5163 19.0306 20.5163Z" fill="#010101"/>
</svg>
