<svg width="112" height="20" viewBox="0 0 112 20" fill="none" xmlns="http://www.w3.org/2000/svg">
<path d="M0.863281 9.89746C0.863281 8.13704 1.2653 6.53743 2.06934 5.09863C2.87337 3.65983 3.99902 2.52572 5.44629 1.69629C6.89355 0.858398 8.51855 0.439453 10.3213 0.439453C11.9717 0.439453 13.4909 0.828776 14.8789 1.60742C16.2754 2.3776 17.3672 3.41862 18.1543 4.73047L15.0566 6.52051C14.6081 5.70801 13.9648 5.07324 13.127 4.61621C12.2891 4.15072 11.3538 3.91797 10.3213 3.91797C8.55241 3.91797 7.1263 4.47233 6.04297 5.58105C4.95964 6.68978 4.41797 8.12858 4.41797 9.89746C4.41797 11.6494 4.95964 13.0798 6.04297 14.1885C7.1263 15.2972 8.55241 15.8516 10.3213 15.8516C11.3623 15.8516 12.3018 15.623 13.1396 15.166C13.986 14.7005 14.625 14.07 15.0566 13.2744L18.1543 15.0771C17.3757 16.389 16.2881 17.4342 14.8916 18.2129C13.5036 18.9831 11.9801 19.3682 10.3213 19.3682C8.51855 19.3682 6.89355 18.9492 5.44629 18.1113C3.99902 17.2734 2.87337 16.1351 2.06934 14.6963C1.2653 13.249 0.863281 11.6494 0.863281 9.89746ZM21.4551 17.375C20.2194 16.0462 19.6016 14.4212 19.6016 12.5C19.6016 10.5788 20.2194 8.95378 21.4551 7.625C22.6908 6.29622 24.1761 5.63184 25.9111 5.63184C27.7139 5.63184 29.1273 6.2666 30.1514 7.53613V6H33.5029V19H30.1514V17.4639C29.1273 18.7334 27.7139 19.3682 25.9111 19.3682C24.1761 19.3682 22.6908 18.7038 21.4551 17.375ZM23.9561 9.85938C23.2874 10.5365 22.9531 11.4167 22.9531 12.5C22.9531 13.5833 23.2874 14.4678 23.9561 15.1533C24.6331 15.8304 25.4922 16.1689 26.5332 16.1689C27.5827 16.1689 28.446 15.8304 29.123 15.1533C29.8086 14.4678 30.1514 13.5833 30.1514 12.5C30.1514 11.4167 29.8086 10.5365 29.123 9.85938C28.446 9.17383 27.5827 8.83105 26.5332 8.83105C25.4922 8.83105 24.6331 9.17383 23.9561 9.85938ZM35.5596 16.2705L38.4795 14.6328C38.6657 15.1745 38.9746 15.5934 39.4062 15.8896C39.8379 16.1774 40.3753 16.3213 41.0186 16.3213C41.5687 16.3213 42.0046 16.2282 42.3262 16.042C42.6562 15.8473 42.8213 15.568 42.8213 15.2041C42.8213 14.9502 42.6986 14.7344 42.4531 14.5566C42.2077 14.3704 41.8861 14.2139 41.4883 14.0869C41.0905 13.96 40.6504 13.833 40.168 13.7061C39.694 13.5791 39.2201 13.4183 38.7461 13.2236C38.2721 13.029 37.8363 12.7962 37.4385 12.5254C37.0407 12.2461 36.7191 11.8737 36.4736 11.4082C36.2282 10.9342 36.1055 10.3883 36.1055 9.77051C36.1055 8.49251 36.5794 7.48535 37.5273 6.74902C38.4753 6.00423 39.6475 5.63184 41.0439 5.63184C42.1104 5.63184 43.0752 5.86882 43.9385 6.34277C44.8018 6.81673 45.4831 7.49805 45.9824 8.38672L43.126 9.94824C42.7113 9.06803 42.0173 8.62793 41.0439 8.62793C40.6038 8.62793 40.2441 8.72103 39.9648 8.90723C39.6855 9.09342 39.5459 9.35579 39.5459 9.69434C39.5459 9.92285 39.639 10.1217 39.8252 10.291C40.0199 10.4603 40.2738 10.5957 40.5869 10.6973C40.9085 10.7988 41.2682 10.9089 41.666 11.0273C42.0723 11.1458 42.4827 11.2643 42.8975 11.3828C43.3122 11.4928 43.7184 11.6536 44.1162 11.8652C44.5225 12.0768 44.8822 12.318 45.1953 12.5889C45.5169 12.8597 45.7708 13.2194 45.957 13.668C46.1517 14.1165 46.249 14.6286 46.249 15.2041C46.249 16.1012 46.0036 16.8714 45.5127 17.5146C45.0218 18.1579 44.387 18.6276 43.6084 18.9238C42.8382 19.2201 41.9749 19.3682 41.0186 19.3682C39.7152 19.3682 38.598 19.1058 37.667 18.5811C36.736 18.0479 36.0335 17.2777 35.5596 16.2705ZM49.3848 17.375C48.1491 16.0462 47.5312 14.4212 47.5312 12.5C47.5312 10.5788 48.1491 8.95378 49.3848 7.625C50.6204 6.29622 52.1058 5.63184 53.8408 5.63184C55.6436 5.63184 57.057 6.2666 58.0811 7.53613V6H61.4326V19H58.0811V17.4639C57.057 18.7334 55.6436 19.3682 53.8408 19.3682C52.1058 19.3682 50.6204 18.7038 49.3848 17.375ZM51.8857 9.85938C51.2171 10.5365 50.8828 11.4167 50.8828 12.5C50.8828 13.5833 51.2171 14.4678 51.8857 15.1533C52.5628 15.8304 53.4219 16.1689 54.4629 16.1689C55.5124 16.1689 56.3757 15.8304 57.0527 15.1533C57.7383 14.4678 58.0811 13.5833 58.0811 12.5C58.0811 11.4167 57.7383 10.5365 57.0527 9.85938C56.3757 9.17383 55.5124 8.83105 54.4629 8.83105C53.4219 8.83105 52.5628 9.17383 51.8857 9.85938ZM69.7861 4.23535V0.794922H83.167V4.23535H78.2539V19H74.6738V4.23535H69.7861ZM83.8398 17.375C82.6042 16.0462 81.9863 14.4212 81.9863 12.5C81.9863 10.5788 82.6042 8.95378 83.8398 7.625C85.0755 6.29622 86.5609 5.63184 88.2959 5.63184C90.0986 5.63184 91.512 6.2666 92.5361 7.53613V6H95.8877V19H92.5361V17.4639C91.512 18.7334 90.0986 19.3682 88.2959 19.3682C86.5609 19.3682 85.0755 18.7038 83.8398 17.375ZM86.3408 9.85938C85.6722 10.5365 85.3379 11.4167 85.3379 12.5C85.3379 13.5833 85.6722 14.4678 86.3408 15.1533C87.0179 15.8304 87.877 16.1689 88.918 16.1689C89.9674 16.1689 90.8307 15.8304 91.5078 15.1533C92.1934 14.4678 92.5361 13.5833 92.5361 12.5C92.5361 11.4167 92.1934 10.5365 91.5078 9.85938C90.8307 9.17383 89.9674 8.83105 88.918 8.83105C87.877 8.83105 87.0179 9.17383 86.3408 9.85938ZM98.9346 19V6H102.286V8.23438C102.608 7.39648 103.124 6.77441 103.835 6.36816C104.554 5.95345 105.354 5.74609 106.234 5.74609V9.47852C106.065 9.46159 105.9 9.45312 105.739 9.45312C105.46 9.45312 105.176 9.47852 104.889 9.5293C104.449 9.61393 104.025 9.77897 103.619 10.0244C103.221 10.2699 102.9 10.6296 102.654 11.1035C102.409 11.5775 102.286 12.1403 102.286 12.792V19H98.9346ZM108.418 3.8291C108.012 3.42285 107.809 2.94043 107.809 2.38184C107.809 1.82324 108.012 1.33659 108.418 0.921875C108.824 0.507161 109.307 0.299805 109.865 0.299805C110.432 0.299805 110.919 0.507161 111.325 0.921875C111.74 1.33659 111.947 1.82324 111.947 2.38184C111.947 2.94043 111.74 3.42285 111.325 3.8291C110.919 4.23535 110.432 4.43848 109.865 4.43848C109.307 4.43848 108.824 4.23535 108.418 3.8291ZM108.202 19V6H111.554V19H108.202Z" fill="white"/>
</svg>
