<svg width="24" height="24" viewBox="0 0 24 24" fill="none" xmlns="http://www.w3.org/2000/svg">
<path d="M20.1303 0H3.86967C1.73592 0 0 1.73592 0 3.86967V20.1303C0 22.2641 1.73592 24 3.86967 24H20.1303C22.2641 24 24 22.2641 24 20.1303V3.86967C24 1.73592 22.2641 0 20.1303 0ZM22.5827 20.1303C22.5827 21.4825 21.4826 22.5827 20.1303 22.5827H3.86967C2.51747 22.5827 1.41731 21.4826 1.41731 20.1303V3.86967C1.41731 2.51747 2.51742 1.41731 3.86967 1.41731H20.1303C21.4825 1.41731 22.5827 2.51742 22.5827 3.86967V20.1303Z" fill="black"/>
<path d="M12.4962 3.94531H9.1066C7.80409 3.94531 6.74438 5.00502 6.74438 6.30753V19.3462C6.74438 19.7376 7.06168 20.0549 7.45304 20.0549H10.7601C11.1515 20.0549 11.4688 19.7376 11.4688 19.3463V15.3545H12.4961C15.6416 15.3545 18.2007 12.7954 18.2007 9.64986C18.2007 6.50436 15.6417 3.94531 12.4962 3.94531ZM12.4962 13.9371H10.7602C10.3688 13.9371 10.0515 14.2544 10.0515 14.6458V18.6375H8.16174V6.30748C8.16174 5.78647 8.58563 5.36263 9.1066 5.36263H12.4962C14.8601 5.36263 16.7834 7.28586 16.7834 9.64986C16.7834 12.0139 14.8601 13.9371 12.4962 13.9371Z" fill="black"/>
<path d="M12.4962 7.25244H10.7602C10.3689 7.25244 10.0516 7.56974 10.0516 7.9611V11.3387C10.0516 11.7301 10.3689 12.0474 10.7602 12.0474H12.4962C13.8182 12.0474 14.8937 10.9719 14.8937 9.64991C14.8937 8.32794 13.8182 7.25244 12.4962 7.25244ZM12.4962 10.6301H11.4689V8.66975H12.4962C13.0367 8.66975 13.4763 9.10944 13.4763 9.64991C13.4763 10.1903 13.0367 10.6301 12.4962 10.6301Z" fill="black"/>
</svg>
