<svg width="187" height="50" viewBox="0 0 187 50" fill="none" xmlns="http://www.w3.org/2000/svg">
<g filter="url(#filter0_b_101_1416)">
<rect width="187" height="50" rx="25" fill="white"/>
</g>
<path d="M45.9775 30V20.1973H49.874C50.6715 20.1973 51.3483 20.457 51.9043 20.9766C52.4648 21.4961 52.7451 22.1432 52.7451 22.918C52.7451 23.3372 52.6562 23.7178 52.4785 24.0596C52.3053 24.4014 52.0615 24.6885 51.7471 24.9209C52.1709 25.1442 52.5059 25.4518 52.752 25.8438C52.998 26.2311 53.1211 26.6823 53.1211 27.1973C53.1211 27.7305 52.9889 28.2113 52.7246 28.6396C52.4648 29.068 52.1094 29.403 51.6582 29.6445C51.2116 29.8815 50.7194 30 50.1816 30H45.9775ZM47.5908 28.4893H50.1816C50.5599 28.4893 50.8743 28.3571 51.125 28.0928C51.3802 27.8285 51.5078 27.5026 51.5078 27.1152C51.5078 26.7279 51.3802 26.402 51.125 26.1377C50.8743 25.8734 50.5599 25.7412 50.1816 25.7412H47.5908V28.4893ZM47.5908 24.2852H49.874C50.2295 24.2852 50.528 24.1621 50.7695 23.916C51.0111 23.6699 51.1318 23.3646 51.1318 23C51.1318 22.6354 51.0111 22.3301 50.7695 22.084C50.528 21.8379 50.2295 21.7148 49.874 21.7148H47.5908V24.2852ZM54.1055 26.5C54.1055 25.8118 54.2581 25.1898 54.5635 24.6338C54.8688 24.0732 55.304 23.6312 55.8691 23.3076C56.4342 22.9795 57.0768 22.8154 57.7969 22.8154C58.4759 22.8154 59.0843 22.984 59.6221 23.3213C60.1644 23.654 60.5814 24.1029 60.873 24.668C61.1647 25.2285 61.3105 25.8438 61.3105 26.5137C61.3105 26.6686 61.2923 26.8783 61.2559 27.1426H55.6846C55.8031 27.6758 56.0628 28.0859 56.4639 28.373C56.8649 28.6556 57.3525 28.7969 57.9268 28.7969C58.3278 28.7969 58.6833 28.7171 58.9932 28.5576C59.3076 28.3981 59.5537 28.1885 59.7314 27.9287L60.9756 28.6533C60.6475 29.141 60.2236 29.5192 59.7041 29.7881C59.1846 30.0524 58.5876 30.1846 57.9131 30.1846C57.348 30.1846 56.8262 30.0911 56.3477 29.9043C55.8691 29.7174 55.4658 29.46 55.1377 29.1318C54.8141 28.8037 54.5612 28.4141 54.3789 27.9629C54.1966 27.5072 54.1055 27.0195 54.1055 26.5ZM55.6709 25.9121H59.7861C59.6859 25.3424 59.4489 24.9141 59.0752 24.627C58.7061 24.3353 58.2754 24.1895 57.7832 24.1895C57.2227 24.1895 56.7578 24.3444 56.3887 24.6543C56.0195 24.9596 55.7803 25.3789 55.6709 25.9121ZM62.6436 30V20.1973H64.1543V26.0967L66.875 23H68.7207L65.6377 26.4316L68.8301 30H67.0254L64.1543 26.7666V30H62.6436ZM69.6367 20.9834C69.6367 20.7191 69.7301 20.4935 69.917 20.3066C70.1084 20.1152 70.3385 20.0195 70.6074 20.0195C70.8717 20.0195 71.0973 20.113 71.2842 20.2998C71.4756 20.4867 71.5713 20.7145 71.5713 20.9834C71.5713 21.2432 71.4756 21.4688 71.2842 21.6602C71.0973 21.8516 70.8717 21.9473 70.6074 21.9473C70.3431 21.9473 70.1152 21.8516 69.9238 21.6602C69.7324 21.4688 69.6367 21.2432 69.6367 20.9834ZM69.8486 30V23H71.3594V30H69.8486ZM71.8857 31.5244C71.9678 31.5335 72.0452 31.5381 72.1182 31.5381C72.4691 31.5381 72.7357 31.4583 72.918 31.2988C73.1367 31.1029 73.2461 30.7633 73.2461 30.2803V23H74.7568V30.2803C74.7568 32.0895 73.9229 32.9941 72.2549 32.9941C72.1364 32.9941 72.0133 32.9896 71.8857 32.9805V31.5244ZM73.0342 20.9834C73.0342 20.7191 73.1276 20.4935 73.3145 20.3066C73.5059 20.1152 73.736 20.0195 74.0049 20.0195C74.2738 20.0195 74.5016 20.113 74.6885 20.2998C74.8753 20.4867 74.9688 20.7145 74.9688 20.9834C74.9688 21.2432 74.873 21.4688 74.6816 21.6602C74.4948 21.8516 74.2692 21.9473 74.0049 21.9473C73.7406 21.9473 73.5127 21.8516 73.3213 21.6602C73.1299 21.4688 73.0342 21.2432 73.0342 20.9834ZM76.5205 30V20.1973H78.0312V26.0967L80.752 23H82.5977L79.5146 26.4316L82.707 30H80.9023L78.0312 26.7666V30H76.5205ZM87.3076 28.3662C86.9932 27.8011 86.8359 27.179 86.8359 26.5C86.8359 25.821 86.9932 25.1989 87.3076 24.6338C87.6221 24.0641 88.0459 23.6198 88.5791 23.3008C89.1123 22.9772 89.6934 22.8154 90.3223 22.8154C91.375 22.8154 92.1908 23.2074 92.7695 23.9912V23H94.2803V30H92.7695V28.9951C92.1999 29.7881 91.3841 30.1846 90.3223 30.1846C89.6934 30.1846 89.1123 30.0228 88.5791 29.6992C88.0459 29.3757 87.6221 28.9313 87.3076 28.3662ZM88.9756 24.8936C88.5563 25.3174 88.3467 25.8529 88.3467 26.5C88.3467 27.1471 88.5563 27.6826 88.9756 28.1064C89.3949 28.5303 89.9212 28.7422 90.5547 28.7422C91.1882 28.7422 91.7145 28.5303 92.1338 28.1064C92.5576 27.6826 92.7695 27.1471 92.7695 26.5C92.7695 25.8529 92.5576 25.3174 92.1338 24.8936C91.7145 24.4697 91.1882 24.2578 90.5547 24.2578C89.9212 24.2578 89.3949 24.4697 88.9756 24.8936ZM96.0439 30V19.7803H97.5547V30H96.0439ZM99.3115 30V19.7803H100.822V30H99.3115ZM102.189 26.5C102.189 25.8118 102.342 25.1898 102.647 24.6338C102.953 24.0732 103.388 23.6312 103.953 23.3076C104.518 22.9795 105.161 22.8154 105.881 22.8154C106.56 22.8154 107.168 22.984 107.706 23.3213C108.248 23.654 108.665 24.1029 108.957 24.668C109.249 25.2285 109.395 25.8438 109.395 26.5137C109.395 26.6686 109.376 26.8783 109.34 27.1426H103.769C103.887 27.6758 104.147 28.0859 104.548 28.373C104.949 28.6556 105.437 28.7969 106.011 28.7969C106.412 28.7969 106.767 28.7171 107.077 28.5576C107.392 28.3981 107.638 28.1885 107.815 27.9287L109.06 28.6533C108.731 29.141 108.308 29.5192 107.788 29.7881C107.269 30.0524 106.672 30.1846 105.997 30.1846C105.432 30.1846 104.91 30.0911 104.432 29.9043C103.953 29.7174 103.55 29.46 103.222 29.1318C102.898 28.8037 102.645 28.4141 102.463 27.9629C102.281 27.5072 102.189 27.0195 102.189 26.5ZM103.755 25.9121H107.87C107.77 25.3424 107.533 24.9141 107.159 24.627C106.79 24.3353 106.359 24.1895 105.867 24.1895C105.307 24.1895 104.842 24.3444 104.473 24.6543C104.104 24.9596 103.864 25.3789 103.755 25.9121ZM113.667 24.4561V23H114.733V22.8633C114.733 21.9017 115.002 21.1702 115.54 20.6689C116.014 20.2269 116.679 20.0059 117.536 20.0059C117.655 20.0059 117.775 20.0104 117.898 20.0195V21.4756C117.798 21.4665 117.705 21.4619 117.618 21.4619C116.702 21.4619 116.244 21.929 116.244 22.8633V23H117.898V24.4561H116.244V30H114.733V24.4561H113.667ZM118.062 26.5C118.062 25.9896 118.158 25.5065 118.35 25.0508C118.546 24.5905 118.808 24.1986 119.136 23.875C119.468 23.5469 119.863 23.2894 120.318 23.1025C120.774 22.9111 121.253 22.8154 121.754 22.8154C122.433 22.8154 123.055 22.9772 123.62 23.3008C124.185 23.6198 124.632 24.0618 124.96 24.627C125.288 25.1921 125.452 25.8164 125.452 26.5C125.452 27.179 125.288 27.8011 124.96 28.3662C124.632 28.9313 124.183 29.3757 123.613 29.6992C123.048 30.0228 122.428 30.1846 121.754 30.1846C121.084 30.1846 120.464 30.0228 119.895 29.6992C119.329 29.3757 118.883 28.9313 118.555 28.3662C118.227 27.8011 118.062 27.179 118.062 26.5ZM120.195 24.9209C119.781 25.3402 119.573 25.8665 119.573 26.5C119.573 27.1335 119.781 27.6621 120.195 28.0859C120.615 28.5052 121.134 28.7148 121.754 28.7148C122.374 28.7148 122.893 28.5052 123.312 28.0859C123.732 27.6621 123.941 27.1335 123.941 26.5C123.941 25.8665 123.732 25.3402 123.312 24.9209C122.893 24.4971 122.374 24.2852 121.754 24.2852C121.134 24.2852 120.615 24.4971 120.195 24.9209ZM126.054 24.4561V23H127.339V21.4893L128.85 21.0381V23H130.586V24.4561H128.85V27.8193C128.85 28.1064 128.913 28.3138 129.041 28.4414C129.178 28.569 129.374 28.6374 129.629 28.6465C129.729 28.651 129.836 28.6533 129.95 28.6533C130.137 28.6533 130.349 28.6488 130.586 28.6396V30C130.249 30.041 129.939 30.0615 129.656 30.0615C128.973 30.0615 128.453 29.9408 128.098 29.6992C127.596 29.3574 127.343 28.7308 127.339 27.8193V24.4561H126.054ZM131.283 26.5C131.283 25.9896 131.379 25.5065 131.57 25.0508C131.766 24.5905 132.028 24.1986 132.356 23.875C132.689 23.5469 133.083 23.2894 133.539 23.1025C133.995 22.9111 134.473 22.8154 134.975 22.8154C135.654 22.8154 136.276 22.9772 136.841 23.3008C137.406 23.6198 137.853 24.0618 138.181 24.627C138.509 25.1921 138.673 25.8164 138.673 26.5C138.673 27.179 138.509 27.8011 138.181 28.3662C137.853 28.9313 137.404 29.3757 136.834 29.6992C136.269 30.0228 135.649 30.1846 134.975 30.1846C134.305 30.1846 133.685 30.0228 133.115 29.6992C132.55 29.3757 132.104 28.9313 131.775 28.3662C131.447 27.8011 131.283 27.179 131.283 26.5ZM133.416 24.9209C133.001 25.3402 132.794 25.8665 132.794 26.5C132.794 27.1335 133.001 27.6621 133.416 28.0859C133.835 28.5052 134.355 28.7148 134.975 28.7148C135.594 28.7148 136.114 28.5052 136.533 28.0859C136.952 27.6621 137.162 27.1335 137.162 26.5C137.162 25.8665 136.952 25.3402 136.533 24.9209C136.114 24.4971 135.594 24.2852 134.975 24.2852C134.355 24.2852 133.835 24.4971 133.416 24.9209ZM138.919 23.8408L139.473 20.1973H141.154L140.177 23.8408H138.919ZM141.175 28.5439L142.48 27.7852C142.594 28.1042 142.786 28.3525 143.055 28.5303C143.324 28.708 143.649 28.7969 144.032 28.7969C144.392 28.7969 144.679 28.7331 144.894 28.6055C145.112 28.4779 145.222 28.2796 145.222 28.0107C145.222 27.8421 145.151 27.7008 145.01 27.5869C144.873 27.4684 144.693 27.3727 144.47 27.2998C144.251 27.2269 144.007 27.1562 143.738 27.0879C143.474 27.015 143.207 26.9261 142.938 26.8213C142.67 26.7165 142.424 26.5934 142.2 26.4521C141.981 26.3063 141.801 26.1081 141.66 25.8574C141.523 25.6022 141.455 25.3037 141.455 24.9619C141.455 24.3148 141.699 23.7952 142.187 23.4033C142.674 23.0114 143.285 22.8154 144.019 22.8154C144.593 22.8154 145.105 22.943 145.557 23.1982C146.012 23.4535 146.363 23.8112 146.609 24.2715L145.338 24.9893C145.092 24.4561 144.652 24.1895 144.019 24.1895C143.727 24.1895 143.483 24.2533 143.287 24.3809C143.096 24.5085 143 24.693 143 24.9346C143 25.1032 143.068 25.2467 143.205 25.3652C143.346 25.4837 143.526 25.5794 143.745 25.6523C143.968 25.7253 144.212 25.7959 144.477 25.8643C144.745 25.9326 145.014 26.0192 145.283 26.124C145.552 26.2288 145.796 26.3542 146.015 26.5C146.238 26.6458 146.418 26.8486 146.555 27.1084C146.696 27.3682 146.767 27.6735 146.767 28.0244C146.767 28.6989 146.507 29.2275 145.987 29.6104C145.472 29.9932 144.821 30.1846 144.032 30.1846C143.344 30.1846 142.752 30.0387 142.255 29.7471C141.763 29.4554 141.403 29.0544 141.175 28.5439Z" fill="#001100"/>
<path d="M151.483 25.0986C151.483 22.9613 151.996 20.8626 153.021 18.8027H154.532C153.507 20.8626 152.994 22.9613 152.994 25.0986C152.994 27.2406 153.507 29.3415 154.532 31.4014H153.021C151.996 29.3415 151.483 27.2406 151.483 25.0986ZM155.216 22.0088C155.521 21.3571 155.956 20.8626 156.521 20.5254C157.087 20.1882 157.706 20.0195 158.381 20.0195C158.791 20.0195 159.181 20.0879 159.55 20.2246C159.924 20.3568 160.256 20.5482 160.548 20.7988C160.844 21.0449 161.079 21.3639 161.252 21.7559C161.43 22.1432 161.519 22.5716 161.519 23.041C161.519 23.6061 161.373 24.1462 161.081 24.6611C160.789 25.1761 160.379 25.7002 159.851 26.2334L157.643 28.4482H161.703V30H155.243V28.7422L158.661 25.2559C159.053 24.8639 159.358 24.4925 159.577 24.1416C159.796 23.7907 159.905 23.4421 159.905 23.0957C159.905 22.6217 159.762 22.2526 159.475 21.9883C159.192 21.7194 158.832 21.585 158.395 21.585C157.57 21.585 156.964 21.9906 156.576 22.8018L155.216 22.0088ZM162.646 27.2861C162.646 26.7803 162.772 26.3223 163.022 25.9121C163.278 25.4974 163.633 25.1624 164.089 24.9072C163.747 24.6839 163.476 24.3945 163.275 24.0391C163.079 23.6836 162.981 23.2803 162.981 22.8291C162.981 22.3734 163.066 21.9632 163.234 21.5986C163.403 21.234 163.631 20.9401 163.918 20.7168C164.21 20.4889 164.538 20.3158 164.902 20.1973C165.271 20.0788 165.666 20.0195 166.085 20.0195C166.5 20.0195 166.892 20.0788 167.261 20.1973C167.63 20.3158 167.958 20.4889 168.245 20.7168C168.537 20.9401 168.767 21.234 168.936 21.5986C169.109 21.9632 169.195 22.3734 169.195 22.8291C169.195 23.2803 169.095 23.6836 168.895 24.0391C168.694 24.3945 168.421 24.6839 168.074 24.9072C168.535 25.1624 168.89 25.4951 169.141 25.9053C169.391 26.3109 169.517 26.7712 169.517 27.2861C169.517 28.1839 169.202 28.8926 168.573 29.4121C167.949 29.9271 167.119 30.1846 166.085 30.1846C165.05 30.1846 164.219 29.9271 163.59 29.4121C162.961 28.8926 162.646 28.1839 162.646 27.2861ZM164.253 27.1289C164.253 27.612 164.422 27.988 164.759 28.2568C165.096 28.5212 165.538 28.6533 166.085 28.6533C166.627 28.6533 167.067 28.5212 167.404 28.2568C167.742 27.988 167.91 27.612 167.91 27.1289C167.91 26.6413 167.742 26.2653 167.404 26.001C167.072 25.7367 166.632 25.6045 166.085 25.6045C165.534 25.6045 165.089 25.7367 164.752 26.001C164.419 26.2653 164.253 26.6413 164.253 27.1289ZM164.588 22.9043C164.588 23.3236 164.729 23.654 165.012 23.8955C165.299 24.137 165.657 24.2578 166.085 24.2578C166.509 24.2578 166.864 24.137 167.151 23.8955C167.443 23.654 167.589 23.3236 167.589 22.9043C167.589 22.4714 167.445 22.1364 167.158 21.8994C166.876 21.6624 166.518 21.5439 166.085 21.5439C165.647 21.5439 165.287 21.6624 165.005 21.8994C164.727 22.1318 164.588 22.4668 164.588 22.9043ZM170.282 31.4014C171.308 29.3415 171.82 27.2406 171.82 25.0986C171.82 22.9613 171.308 20.8626 170.282 18.8027H171.793C172.818 20.8626 173.331 22.9613 173.331 25.0986C173.331 27.2406 172.818 29.3415 171.793 31.4014H170.282Z" fill="#001100" fill-opacity="0.4"/>
<path d="M15 19.6C15 18.6452 15.3793 17.7295 16.0544 17.0544C16.7295 16.3793 17.6452 16 18.6 16H29.4C30.3548 16 31.2705 16.3793 31.9456 17.0544C32.6207 17.7295 33 18.6452 33 19.6V30.4C33 31.3548 32.6207 32.2705 31.9456 32.9456C31.2705 33.6207 30.3548 34 29.4 34H18.6C17.6452 34 16.7295 33.6207 16.0544 32.9456C15.3793 32.2705 15 31.3548 15 30.4V19.6Z" stroke="black" stroke-width="1.8" stroke-linecap="round" stroke-linejoin="round"/>
<path d="M20.85 24.1C22.0926 24.1 23.1 23.0926 23.1 21.85C23.1 20.6074 22.0926 19.6 20.85 19.6C19.6074 19.6 18.6 20.6074 18.6 21.85C18.6 23.0926 19.6074 24.1 20.85 24.1Z" stroke="black" stroke-width="1.8" stroke-linecap="round" stroke-linejoin="round"/>
<path d="M26.2734 25.5589L18.6 34H29.5197C30.4427 34 31.328 33.6333 31.9806 32.9806C32.6333 32.328 33 31.4427 33 30.5197V30.4C33 29.9806 32.8425 29.8195 32.559 29.509L28.932 25.5535C28.763 25.3691 28.5573 25.222 28.3283 25.1215C28.0992 25.021 27.8517 24.9693 27.6015 24.9699C27.3514 24.9704 27.1041 25.023 26.8754 25.1244C26.6467 25.2258 26.4417 25.3738 26.2734 25.5589V25.5589Z" stroke="black" stroke-width="1.8" stroke-linecap="round" stroke-linejoin="round"/>
<defs>
<filter id="filter0_b_101_1416" x="-10" y="-10" width="207" height="70" filterUnits="userSpaceOnUse" color-interpolation-filters="sRGB">
<feFlood flood-opacity="0" result="BackgroundImageFix"/>
<feGaussianBlur in="BackgroundImage" stdDeviation="5"/>
<feComposite in2="SourceAlpha" operator="in" result="effect1_backgroundBlur_101_1416"/>
<feBlend mode="normal" in="SourceGraphic" in2="effect1_backgroundBlur_101_1416" result="shape"/>
</filter>
</defs>
</svg>
