<svg width="54" height="54" viewBox="0 0 54 54" fill="none" xmlns="http://www.w3.org/2000/svg">
<rect width="54" height="54" rx="27" fill="white" fill-opacity="0.4"/>
<rect x="6" y="6" width="42" height="42" rx="21" fill="white"/>
<path d="M35 35L31.2223 31.2156L35 35ZM33.3158 26.1579C33.3158 28.0563 32.5617 29.8769 31.2193 31.2193C29.8769 32.5617 28.0563 33.3158 26.1579 33.3158C24.2595 33.3158 22.4389 32.5617 21.0965 31.2193C19.7541 29.8769 19 28.0563 19 26.1579C19 24.2595 19.7541 22.4389 21.0965 21.0965C22.4389 19.7541 24.2595 19 26.1579 19C28.0563 19 29.8769 19.7541 31.2193 21.0965C32.5617 22.4389 33.3158 24.2595 33.3158 26.1579V26.1579Z" stroke="black" stroke-width="2" stroke-linecap="round"/>
<path d="M26.1578 23.2105V26.1579M26.1578 26.1579V29.1052M26.1578 26.1579H29.1051M26.1578 26.1579H23.2104" stroke="black" stroke-width="2" stroke-linecap="round"/>
</svg>
