<svg width="24" height="23" viewBox="0 0 24 23" fill="none" xmlns="http://www.w3.org/2000/svg">
<path d="M6.7825 8.34766C5.91953 8.34766 5.21729 9.0499 5.21729 9.91287C5.21729 10.7758 5.91953 11.4781 6.7825 11.4781C7.64547 11.4781 8.34771 10.7758 8.34771 9.91287C8.34771 9.0499 7.64542 8.34766 6.7825 8.34766ZM6.7825 10.4346C6.49553 10.4346 6.26074 10.2009 6.26074 9.91287C6.26074 9.62487 6.49553 9.39112 6.7825 9.39112C7.06947 9.39112 7.30425 9.62487 7.30425 9.91287C7.30425 10.2009 7.06942 10.4346 6.7825 10.4346Z" fill="black"/>
<path d="M12 9.39136C11.712 9.39136 11.4783 9.62511 11.4783 9.91311V11.4783C11.4783 11.7663 11.712 12.0001 12 12.0001C12.288 12.0001 12.5218 11.7663 12.5218 11.4783V9.91306C12.5218 9.62506 12.288 9.39136 12 9.39136Z" fill="black"/>
<path d="M9.91311 9.39136C9.62511 9.39136 9.39136 9.62511 9.39136 9.91311V11.4783C9.39136 11.7663 9.62511 12.0001 9.91311 12.0001C10.2011 12.0001 10.4349 11.7663 10.4349 11.4783V9.91311C10.4348 9.62506 10.2011 9.39136 9.91311 9.39136Z" fill="black"/>
<path d="M7.8262 15.6522C8.11436 15.6522 8.34795 15.4186 8.34795 15.1304C8.34795 14.8422 8.11436 14.6086 7.8262 14.6086C7.53804 14.6086 7.30444 14.8422 7.30444 15.1304C7.30444 15.4186 7.53804 15.6522 7.8262 15.6522Z" fill="black"/>
<path d="M7.82618 16.1738C8.40246 16.1738 8.86964 15.7067 8.86964 15.1304C8.86964 14.5541 8.40246 14.0869 7.82618 14.0869C7.24989 14.0869 6.78271 14.5541 6.78271 15.1304C6.78271 15.7067 7.24989 16.1738 7.82618 16.1738Z" fill="black"/>
<path d="M2.60868 7.30425H1.04346V6.26079H2.60868C2.89668 6.26079 3.13043 6.02704 3.13043 5.73904C3.13043 5.45104 2.89668 5.21729 2.60868 5.21729H0.521755C0.233755 5.21729 0 5.45104 0 5.73904V7.82601C0 8.11401 0.233755 8.34776 0.521755 8.34776H2.60873C2.89673 8.34776 3.13048 8.11401 3.13048 7.82601C3.13048 7.53801 2.89668 7.30425 2.60868 7.30425Z" fill="black"/>
<path d="M4.69565 15.6521C4.40765 15.6521 4.17389 15.8859 4.17389 16.1739V21.3913C4.17389 21.6793 3.93911 21.913 3.65214 21.913H1.56522C1.27824 21.913 1.04346 21.6793 1.04346 21.3913V16.1739C1.04346 15.8859 0.809706 15.6521 0.521706 15.6521C0.233706 15.6521 0 15.8859 0 16.1739V21.3913C0 22.2542 0.702244 22.9565 1.56522 22.9565H3.65219C4.51516 22.9565 5.2174 22.2542 5.2174 21.3913V16.1739C5.2174 15.8859 4.98365 15.6521 4.69565 15.6521Z" fill="black"/>
<path d="M23.4782 12.5217H0.521755C0.233755 12.5217 0 12.7554 0 13.0434V15.6521C0 15.8765 0.144 16.0757 0.356869 16.1467L1.92209 16.6685C1.9753 16.6862 2.03062 16.6956 2.08697 16.6956H5.33113L5.75476 18.3871C5.81214 18.6198 6.02188 18.7825 6.26087 18.7825H17.7391C17.9781 18.7825 18.1878 18.6198 18.2463 18.3871L18.6689 16.6956H21.913C21.9694 16.6956 22.0247 16.6862 22.0779 16.6685L23.6431 16.1467C23.856 16.0757 24 15.8765 24 15.6521V13.0434C24 12.7554 23.7662 12.5217 23.4782 12.5217ZM22.9565 15.2765L21.8285 15.6522H18.2608C18.0219 15.6522 17.8122 15.8149 17.7547 16.0476L17.3321 17.7391H6.66885L6.24521 16.0476C6.18784 15.8149 5.9781 15.6522 5.73911 15.6522H2.17149L1.04351 15.2765V13.5652H22.9565V15.2765H22.9565Z" fill="black"/>
<path d="M17.2173 8.34766C16.3543 8.34766 15.6521 9.0499 15.6521 9.91287C15.6521 10.7758 16.3543 11.4781 17.2173 11.4781C18.0803 11.4781 18.7825 10.7758 18.7825 9.91287C18.7825 9.0499 18.0803 8.34766 17.2173 8.34766ZM17.2173 10.4346C16.9303 10.4346 16.6956 10.2009 16.6956 9.91287C16.6956 9.62487 16.9303 9.39112 17.2173 9.39112C17.5043 9.39112 17.7391 9.62487 17.7391 9.91287C17.7391 10.2009 17.5043 10.4346 17.2173 10.4346Z" fill="black"/>
<path d="M12 9.39136C11.712 9.39136 11.4783 9.62511 11.4783 9.91311V11.4783C11.4783 11.7663 11.712 12.0001 12 12.0001C12.288 12.0001 12.5218 11.7663 12.5218 11.4783V9.91306C12.5218 9.62506 12.288 9.39136 12 9.39136Z" fill="black"/>
<path d="M14.0869 9.39136C13.7989 9.39136 13.5652 9.62511 13.5652 9.91311V11.4783C13.5652 11.7663 13.7989 12.0001 14.0869 12.0001C14.3749 12.0001 14.6087 11.7663 14.6087 11.4783V9.91311C14.6087 9.62506 14.3749 9.39136 14.0869 9.39136Z" fill="black"/>
<path d="M20.9509 6.26725C20.6775 6.22445 14.2476 5.21753 11.9999 5.21753C9.75228 5.21753 3.32232 6.22445 3.04894 6.26725C2.76408 6.3121 2.56999 6.57927 2.61484 6.86414C2.65969 7.14901 2.93204 7.34099 3.21173 7.29824C3.27747 7.28782 9.83362 6.26104 11.9999 6.26104C14.1661 6.26104 20.7223 7.28782 20.788 7.29824C20.8152 7.3024 20.8434 7.3045 20.8704 7.3045C21.1219 7.3045 21.3442 7.12083 21.3849 6.86414C21.4298 6.57922 21.2347 6.3121 20.9509 6.26725Z" fill="black"/>
<path d="M23.6035 9.40695L21.9109 8.98331L21.9099 7.776C21.6125 4.69878 21.0417 0.947494 20.0108 0.55619C19.0309 0.183668 13.176 0.0271467 11.9875 0C10.824 0.0271467 4.96902 0.183668 3.98817 0.55619C2.95723 0.947494 2.38642 4.69775 2.08697 7.82608V8.98331L0.395511 9.40695C0.162783 9.46535 0 9.67406 0 9.913V13.0434C0 13.3314 0.233755 13.5652 0.521755 13.5652H4.17394C4.32523 13.5652 4.46923 13.4984 4.56838 13.3847C4.66752 13.2709 4.71238 13.1196 4.69046 12.9693L4.16871 9.31715C4.13217 9.0605 3.91201 8.86954 3.65219 8.86954H3.12941L3.12838 7.87617C3.39447 5.1141 3.9736 1.89391 4.35967 1.53078C4.98678 1.29287 9.38606 1.10607 11.9875 1.04346C14.6139 1.10607 19.0132 1.29287 19.5892 1.50364C20.0264 1.89391 20.6055 5.11405 20.8695 7.82608V8.86954H20.3478C20.088 8.86954 19.8678 9.0605 19.8313 9.31822L19.3095 12.9704C19.2876 13.1196 19.3325 13.272 19.4316 13.3857C19.5308 13.4995 19.6748 13.5652 19.8261 13.5652H23.4782C23.7662 13.5652 24 13.3314 23.9989 13.0434V9.913C23.9989 9.67304 23.8361 9.46535 23.6035 9.40695ZM3.20033 9.913L3.57285 12.5217H1.04346V10.321L2.67339 9.913H3.20033ZM22.9565 12.5217H20.4271L20.7996 9.91305H21.3266L22.9565 10.321V12.5217Z" fill="black"/>
<path d="M16.1739 15.6522C16.462 15.6522 16.6956 15.4186 16.6956 15.1304C16.6956 14.8422 16.462 14.6086 16.1739 14.6086C15.8857 14.6086 15.6521 14.8422 15.6521 15.1304C15.6521 15.4186 15.8857 15.6522 16.1739 15.6522Z" fill="black"/>
<path d="M16.1741 14.0869C15.5981 14.0869 15.1306 14.5555 15.1306 15.1304C15.1306 15.7053 15.5981 16.1738 16.1741 16.1738C16.7501 16.1738 17.2175 15.7053 17.2175 15.1304C17.2175 14.5554 16.7501 14.0869 16.1741 14.0869Z" fill="black"/>
<path d="M23.4783 5.21729H21.3914C21.1034 5.21729 20.8696 5.45104 20.8696 5.73904C20.8696 6.02704 21.1034 6.26079 21.3914 6.26079H22.9566V7.30425H21.3914C21.1034 7.30425 20.8696 7.53801 20.8696 7.82601C20.8696 8.11401 21.1034 8.34776 21.3914 8.34776H23.4783C23.7663 8.34776 24.0001 8.11401 24.0001 7.82601V5.73904C24.0001 5.45104 23.7663 5.21729 23.4783 5.21729Z" fill="black"/>
<path d="M23.4782 15.6521C23.1902 15.6521 22.9564 15.8859 22.9564 16.1739V21.3913C22.9564 21.6793 22.7216 21.913 22.4347 21.913H20.3477C20.0608 21.913 19.826 21.6793 19.826 21.3913V16.1739C19.826 15.8859 19.5922 15.6521 19.3042 15.6521C19.0162 15.6521 18.7825 15.8859 18.7825 16.1739V21.3913C18.7825 22.2542 19.4847 22.9565 20.3477 22.9565H22.4347C23.2976 22.9565 23.9999 22.2542 23.9999 21.3913V16.1739C23.9999 15.8859 23.7662 15.6521 23.4782 15.6521Z" fill="black"/>
</svg>
