<svg width="26" height="24" viewBox="0 0 26 24" fill="none" xmlns="http://www.w3.org/2000/svg">
<path d="M7.08479 13.4915L10.8256 9.75068L1.54633 0.484657C0.556077 1.47776 0 2.82299 0 4.22543C0 5.62788 0.556077 6.9731 1.54633 7.96621L7.08479 13.4915ZM16.0468 11.0989C18.0692 12.0374 20.9111 11.3765 23.0128 9.27482C25.5375 6.75013 26.0266 3.12832 24.0835 1.18523C22.1536 -0.744644 18.5318 -0.268785 15.9939 2.25591C13.8922 4.35762 13.2313 7.19955 14.1698 9.22195L1.26874 22.123L3.13252 23.9868L12.2399 14.9058L21.3341 24L23.1979 22.1362L14.1037 13.042L16.0468 11.0989Z" fill="black"/>
</svg>
