<svg width="151" height="38" viewBox="0 0 151 38" fill="none" xmlns="http://www.w3.org/2000/svg">
<path d="M1.05859 24V14.1973H4.97559C5.74121 14.1973 6.38835 14.457 6.91699 14.9766C7.4502 15.4915 7.7168 16.125 7.7168 16.877C7.7168 17.3053 7.62337 17.695 7.43652 18.0459C7.24967 18.3968 6.98991 18.6885 6.65723 18.9209C7.1084 19.1351 7.46615 19.4427 7.73047 19.8438C7.99479 20.2448 8.12695 20.7051 8.12695 21.2246C8.12695 22.0039 7.85124 22.6624 7.2998 23.2002C6.74837 23.7334 6.07617 24 5.2832 24H1.05859ZM2.35742 22.7832H5.2832C5.71615 22.7832 6.08301 22.6283 6.38379 22.3184C6.68457 22.0085 6.83496 21.6302 6.83496 21.1836C6.83496 20.7415 6.68457 20.3678 6.38379 20.0625C6.08301 19.7572 5.71615 19.6045 5.2832 19.6045H2.35742V22.7832ZM2.35742 18.415H4.97559C5.38118 18.415 5.72526 18.2715 6.00781 17.9844C6.29036 17.6927 6.43164 17.3372 6.43164 16.918C6.43164 16.5033 6.29036 16.1501 6.00781 15.8584C5.72526 15.5667 5.38118 15.4209 4.97559 15.4209H2.35742V18.415ZM9.19336 20.5C9.19336 19.4518 9.53516 18.5768 10.2188 17.875C10.9023 17.1686 11.7819 16.8154 12.8574 16.8154C13.541 16.8154 14.1517 16.9886 14.6895 17.335C15.2272 17.6768 15.6374 18.1279 15.9199 18.6885C16.2025 19.249 16.3438 19.8574 16.3438 20.5137C16.3438 20.696 16.3301 20.8783 16.3027 21.0605H10.4375C10.556 21.6803 10.8431 22.1657 11.2988 22.5166C11.7546 22.863 12.3128 23.0361 12.9736 23.0361C13.4339 23.0361 13.8372 22.9427 14.1836 22.7559C14.5345 22.5645 14.8034 22.3161 14.9902 22.0107L16.0225 22.5986C15.7035 23.0908 15.2796 23.4782 14.751 23.7607C14.2269 24.0433 13.6253 24.1846 12.9463 24.1846C11.8343 24.1846 10.9297 23.8359 10.2324 23.1387C9.53971 22.4414 9.19336 21.5618 9.19336 20.5ZM10.4375 19.9941H15.1133C15.013 19.3333 14.751 18.8298 14.3271 18.4834C13.9079 18.137 13.418 17.9639 12.8574 17.9639C12.2057 17.9639 11.6634 18.1484 11.2305 18.5176C10.8021 18.8867 10.5378 19.3789 10.4375 19.9941ZM17.7451 24V14.1973H18.9619V20.0967L21.9902 17H23.5557L20.2129 20.3906L23.665 24H22.1543L18.9619 20.6846V24H17.7451ZM24.8271 15.4961C24.6676 15.3366 24.5879 15.1429 24.5879 14.915C24.5879 14.6872 24.6676 14.4935 24.8271 14.334C24.9867 14.1699 25.1826 14.0879 25.415 14.0879C25.6383 14.0879 25.8298 14.1699 25.9893 14.334C26.1488 14.4935 26.2285 14.6872 26.2285 14.915C26.2285 15.1383 26.1488 15.3298 25.9893 15.4893C25.8298 15.6488 25.6383 15.7285 25.415 15.7285C25.1826 15.7285 24.9867 15.651 24.8271 15.4961ZM24.7998 24V17H26.0166V24H24.7998ZM26.5361 25.8047C26.6182 25.8092 26.6956 25.8115 26.7686 25.8115C27.1605 25.8115 27.459 25.7227 27.6641 25.5449C27.901 25.3307 28.0195 24.9548 28.0195 24.417V17H29.2363V24.417C29.2363 25.3193 29.0085 25.987 28.5527 26.4199C28.1517 26.8027 27.5889 26.9941 26.8643 26.9941C26.7594 26.9941 26.6501 26.9896 26.5361 26.9805V25.8047ZM28.0469 15.4961C27.8919 15.3366 27.8145 15.1429 27.8145 14.915C27.8145 14.6872 27.8919 14.4935 28.0469 14.334C28.2064 14.1699 28.4023 14.0879 28.6348 14.0879C28.8581 14.0879 29.0495 14.1699 29.209 14.334C29.3685 14.4935 29.4482 14.6872 29.4482 14.915C29.4482 15.1383 29.3685 15.3298 29.209 15.4893C29.054 15.6488 28.8626 15.7285 28.6348 15.7285C28.4023 15.7285 28.2064 15.651 28.0469 15.4961ZM31.0889 24V14.1973H32.3057V20.0967L35.334 17H36.8994L33.5566 20.3906L37.0088 24H35.498L32.3057 20.6846V24H31.0889ZM41.7256 22.3662C41.4111 21.8011 41.2539 21.179 41.2539 20.5C41.2539 19.821 41.4111 19.1989 41.7256 18.6338C42.0446 18.0687 42.4753 17.6243 43.0176 17.3008C43.5599 16.9772 44.1523 16.8154 44.7949 16.8154C45.3737 16.8154 45.8864 16.9385 46.333 17.1846C46.7842 17.4261 47.1533 17.7656 47.4404 18.2031V14.1973H48.6572V24H47.4404V22.7969C47.1533 23.2344 46.7842 23.5762 46.333 23.8223C45.8864 24.0638 45.3737 24.1846 44.7949 24.1846C44.1523 24.1846 43.5599 24.0228 43.0176 23.6992C42.4753 23.3757 42.0446 22.9313 41.7256 22.3662ZM43.1816 18.709C42.7077 19.1875 42.4707 19.7845 42.4707 20.5C42.4707 21.2155 42.7077 21.8125 43.1816 22.291C43.6556 22.7695 44.2435 23.0088 44.9453 23.0088C45.6517 23.0088 46.2441 22.7695 46.7227 22.291C47.2012 21.8125 47.4404 21.2155 47.4404 20.5C47.4404 19.7845 47.2012 19.1875 46.7227 18.709C46.2441 18.2305 45.6517 17.9912 44.9453 17.9912C44.2435 17.9912 43.6556 18.2305 43.1816 18.709ZM50.1133 20.5C50.1133 19.4518 50.4551 18.5768 51.1387 17.875C51.8223 17.1686 52.7018 16.8154 53.7773 16.8154C54.4609 16.8154 55.0716 16.9886 55.6094 17.335C56.1471 17.6768 56.5573 18.1279 56.8398 18.6885C57.1224 19.249 57.2637 19.8574 57.2637 20.5137C57.2637 20.696 57.25 20.8783 57.2227 21.0605H51.3574C51.4759 21.6803 51.763 22.1657 52.2188 22.5166C52.6745 22.863 53.2327 23.0361 53.8936 23.0361C54.3538 23.0361 54.7572 22.9427 55.1035 22.7559C55.4544 22.5645 55.7233 22.3161 55.9102 22.0107L56.9424 22.5986C56.6234 23.0908 56.1995 23.4782 55.6709 23.7607C55.1468 24.0433 54.5452 24.1846 53.8662 24.1846C52.7542 24.1846 51.8496 23.8359 51.1523 23.1387C50.4596 22.4414 50.1133 21.5618 50.1133 20.5ZM51.3574 19.9941H56.0332C55.9329 19.3333 55.6709 18.8298 55.2471 18.4834C54.8278 18.137 54.3379 17.9639 53.7773 17.9639C53.1257 17.9639 52.5833 18.1484 52.1504 18.5176C51.722 18.8867 51.4577 19.3789 51.3574 19.9941ZM61.3516 17H62.6709L64.8652 22.7012L67.0664 17H68.3789L65.583 24H64.1543L61.3516 17ZM69.4385 15.4961C69.279 15.3366 69.1992 15.1429 69.1992 14.915C69.1992 14.6872 69.279 14.4935 69.4385 14.334C69.598 14.1699 69.7939 14.0879 70.0264 14.0879C70.2497 14.0879 70.4411 14.1699 70.6006 14.334C70.7601 14.4935 70.8398 14.6872 70.8398 14.915C70.8398 15.1383 70.7601 15.3298 70.6006 15.4893C70.4411 15.6488 70.2497 15.7285 70.0264 15.7285C69.7939 15.7285 69.598 15.651 69.4385 15.4961ZM69.4111 24V17H70.6279V24H69.4111ZM72.5693 22.3662C72.2549 21.8011 72.0977 21.179 72.0977 20.5C72.0977 19.821 72.2549 19.1989 72.5693 18.6338C72.8883 18.0687 73.319 17.6243 73.8613 17.3008C74.4036 16.9772 74.9961 16.8154 75.6387 16.8154C76.2174 16.8154 76.7301 16.9385 77.1768 17.1846C77.6279 17.4261 77.9971 17.7656 78.2842 18.2031V14.1973H79.501V24H78.2842V22.7969C77.9971 23.2344 77.6279 23.5762 77.1768 23.8223C76.7301 24.0638 76.2174 24.1846 75.6387 24.1846C74.9961 24.1846 74.4036 24.0228 73.8613 23.6992C73.319 23.3757 72.8883 22.9313 72.5693 22.3662ZM74.0254 18.709C73.5514 19.1875 73.3145 19.7845 73.3145 20.5C73.3145 21.2155 73.5514 21.8125 74.0254 22.291C74.4993 22.7695 75.0872 23.0088 75.7891 23.0088C76.4954 23.0088 77.0879 22.7695 77.5664 22.291C78.0449 21.8125 78.2842 21.2155 78.2842 20.5C78.2842 19.7845 78.0449 19.1875 77.5664 18.709C77.0879 18.2305 76.4954 17.9912 75.7891 17.9912C75.0872 17.9912 74.4993 18.2305 74.0254 18.709ZM80.957 20.5C80.957 19.4518 81.2988 18.5768 81.9824 17.875C82.666 17.1686 83.5456 16.8154 84.6211 16.8154C85.3047 16.8154 85.9154 16.9886 86.4531 17.335C86.9909 17.6768 87.401 18.1279 87.6836 18.6885C87.9661 19.249 88.1074 19.8574 88.1074 20.5137C88.1074 20.696 88.0938 20.8783 88.0664 21.0605H82.2012C82.3197 21.6803 82.6068 22.1657 83.0625 22.5166C83.5182 22.863 84.0765 23.0361 84.7373 23.0361C85.1976 23.0361 85.6009 22.9427 85.9473 22.7559C86.2982 22.5645 86.5671 22.3161 86.7539 22.0107L87.7861 22.5986C87.4671 23.0908 87.0433 23.4782 86.5146 23.7607C85.9906 24.0433 85.389 24.1846 84.71 24.1846C83.598 24.1846 82.6934 23.8359 81.9961 23.1387C81.3034 22.4414 80.957 21.5618 80.957 20.5ZM82.2012 19.9941H86.877C86.7767 19.3333 86.5146 18.8298 86.0908 18.4834C85.6715 18.137 85.1816 17.9639 84.6211 17.9639C83.9694 17.9639 83.4271 18.1484 82.9941 18.5176C82.5658 18.8867 82.3014 19.3789 82.2012 19.9941ZM89.5908 22.3662C89.2673 21.8011 89.1055 21.179 89.1055 20.5C89.1055 19.821 89.2673 19.1989 89.5908 18.6338C89.9189 18.0687 90.3656 17.6243 90.9307 17.3008C91.4958 16.9772 92.1133 16.8154 92.7832 16.8154C93.4531 16.8154 94.0706 16.9772 94.6357 17.3008C95.2054 17.6243 95.6543 18.0687 95.9824 18.6338C96.3151 19.1989 96.4814 19.821 96.4814 20.5C96.4814 21.179 96.3151 21.8011 95.9824 22.3662C95.6543 22.9313 95.2054 23.3757 94.6357 23.6992C94.0706 24.0228 93.4531 24.1846 92.7832 24.1846C92.1133 24.1846 91.4958 24.0228 90.9307 23.6992C90.3656 23.3757 89.9189 22.9313 89.5908 22.3662ZM91.0332 18.7227C90.5592 19.2012 90.3223 19.7936 90.3223 20.5C90.3223 21.2064 90.5592 21.7988 91.0332 22.2773C91.5072 22.7559 92.0905 22.9951 92.7832 22.9951C93.485 22.9951 94.0729 22.7559 94.5469 22.2773C95.0254 21.7988 95.2646 21.2064 95.2646 20.5C95.2646 19.7936 95.0254 19.2012 94.5469 18.7227C94.0729 18.2441 93.485 18.0049 92.7832 18.0049C92.0905 18.0049 91.5072 18.2441 91.0332 18.7227Z" fill="white"/>
<rect x="113" width="38" height="38" rx="19" fill="white" fill-opacity="0.4"/>
<rect x="117" y="4" width="30" height="30" rx="15" fill="white"/>
<path d="M129 15L136 19L129 23V15Z" fill="#FC821E"/>
</svg>
