<svg width="24" height="20" viewBox="0 0 24 20" fill="none" xmlns="http://www.w3.org/2000/svg">
<path d="M22.8284 9.8348V9.37772C22.8284 8.5357 22.3924 7.794 21.7348 7.36509V2.37909C21.7348 1.06725 20.6675 0 19.3557 0H4.64433C3.33248 0 2.26519 1.06725 2.26519 2.37909V7.36505C1.60753 7.79395 1.17159 8.53566 1.17159 9.37767V9.83475C0.498187 10.0121 0 10.6261 0 11.3545V16.7027C0 17.5441 0.664781 18.2331 1.49667 18.2722V18.9052C1.49667 19.2927 1.81088 19.6069 2.19844 19.6069C2.586 19.6069 2.9002 19.2927 2.9002 18.9052V18.2741H21.0997V18.9052C21.0997 19.2927 21.414 19.6069 21.8015 19.6069C22.1891 19.6069 22.5033 19.2927 22.5033 18.9052V18.2722C23.3352 18.233 24 17.5441 24 16.7027V11.3545C24 10.6261 23.5018 10.0121 22.8284 9.8348V9.8348ZM3.66877 2.37909C3.66877 1.84116 4.10639 1.40353 4.64433 1.40353H19.3557C19.8936 1.40353 20.3312 1.84116 20.3312 2.37909V6.97598H19.3955V5.73905C19.3955 4.87327 18.6912 4.16887 17.8253 4.16887H14.0492C13.1834 4.16887 12.479 4.87327 12.479 5.73905V6.97598H11.521V5.73905C11.521 4.87327 10.8166 4.16887 9.95081 4.16887H6.17466C5.30883 4.16887 4.60448 4.87327 4.60448 5.73905V6.97598H3.66877V2.37909ZM17.9919 5.739V6.80934C17.9919 6.90122 17.9172 6.97594 17.8253 6.97594H14.0492C13.9573 6.97594 13.8826 6.90117 13.8826 6.80934V5.739C13.8826 5.64712 13.9574 5.57241 14.0492 5.57241H17.8253C17.9172 5.57241 17.9919 5.64712 17.9919 5.739ZM10.1174 5.739V6.80934C10.1174 6.90122 10.0426 6.97594 9.95081 6.97594H6.17466C6.08278 6.97594 6.00806 6.90117 6.00806 6.80934V5.739C6.00806 5.64712 6.08283 5.57241 6.17466 5.57241H9.95081C10.0426 5.57241 10.1174 5.64712 10.1174 5.739V5.739ZM2.57517 9.37767C2.57517 8.82727 3.02297 8.37951 3.57338 8.37951H20.4266C20.977 8.37951 21.4248 8.82731 21.4248 9.37767V9.78305H2.57517V9.37767ZM22.5964 16.7027C22.5964 16.7952 22.5211 16.8705 22.4286 16.8705H1.57139C1.47886 16.8705 1.40353 16.7952 1.40353 16.7027V11.3545C1.40353 11.262 1.47881 11.1867 1.57139 11.1867H22.4286C22.5211 11.1867 22.5965 11.262 22.5965 11.3545V16.7027H22.5964Z" fill="black"/>
</svg>
