<svg width="202" height="36" viewBox="0 0 202 36" fill="none" xmlns="http://www.w3.org/2000/svg">
<path d="M1.80762 24V11.3965H9.05859V12.9873H3.47754V17.0742H8.82129V18.6562H3.47754V24H1.80762ZM11.0449 21.8994C10.6289 21.1729 10.4209 20.373 10.4209 19.5C10.4209 18.627 10.6289 17.8271 11.0449 17.1006C11.4668 16.374 12.041 15.8027 12.7676 15.3867C13.4941 14.9707 14.2881 14.7627 15.1494 14.7627C16.0107 14.7627 16.8047 14.9707 17.5312 15.3867C18.2637 15.8027 18.8408 16.374 19.2627 17.1006C19.6904 17.8271 19.9043 18.627 19.9043 19.5C19.9043 20.373 19.6904 21.1729 19.2627 21.8994C18.8408 22.626 18.2637 23.1973 17.5312 23.6133C16.8047 24.0293 16.0107 24.2373 15.1494 24.2373C14.2881 24.2373 13.4941 24.0293 12.7676 23.6133C12.041 23.1973 11.4668 22.626 11.0449 21.8994ZM12.8994 17.2148C12.29 17.8301 11.9854 18.5918 11.9854 19.5C11.9854 20.4082 12.29 21.1699 12.8994 21.7852C13.5088 22.4004 14.2588 22.708 15.1494 22.708C16.0518 22.708 16.8076 22.4004 17.417 21.7852C18.0322 21.1699 18.3398 20.4082 18.3398 19.5C18.3398 18.5918 18.0322 17.8301 17.417 17.2148C16.8076 16.5996 16.0518 16.292 15.1494 16.292C14.2588 16.292 13.5088 16.5996 12.8994 17.2148ZM20.6953 16.5117V15H22.4795V12.9521L24.0439 12.4775V15H26.4346V16.5117H24.0439V21.3896C24.0439 21.8291 24.1318 22.1426 24.3076 22.3301C24.4834 22.5059 24.7471 22.5996 25.0986 22.6113C25.1924 22.6113 25.2979 22.6143 25.415 22.6201C25.708 22.6201 26.0479 22.6113 26.4346 22.5938V24C26.0127 24.0586 25.626 24.0879 25.2744 24.0879C24.4893 24.0879 23.874 23.9473 23.4287 23.666C22.7959 23.2617 22.4795 22.5029 22.4795 21.3896V16.5117H20.6953ZM27.9551 21.8994C27.5391 21.1729 27.3311 20.373 27.3311 19.5C27.3311 18.627 27.5391 17.8271 27.9551 17.1006C28.377 16.374 28.9512 15.8027 29.6777 15.3867C30.4043 14.9707 31.1982 14.7627 32.0596 14.7627C32.9209 14.7627 33.7148 14.9707 34.4414 15.3867C35.1738 15.8027 35.751 16.374 36.1729 17.1006C36.6006 17.8271 36.8145 18.627 36.8145 19.5C36.8145 20.373 36.6006 21.1729 36.1729 21.8994C35.751 22.626 35.1738 23.1973 34.4414 23.6133C33.7148 24.0293 32.9209 24.2373 32.0596 24.2373C31.1982 24.2373 30.4043 24.0293 29.6777 23.6133C28.9512 23.1973 28.377 22.626 27.9551 21.8994ZM29.8096 17.2148C29.2002 17.8301 28.8955 18.5918 28.8955 19.5C28.8955 20.4082 29.2002 21.1699 29.8096 21.7852C30.4189 22.4004 31.1689 22.708 32.0596 22.708C32.9619 22.708 33.7178 22.4004 34.3271 21.7852C34.9424 21.1699 35.25 20.4082 35.25 19.5C35.25 18.5918 34.9424 17.8301 34.3271 17.2148C33.7178 16.5996 32.9619 16.292 32.0596 16.292C31.1689 16.292 30.4189 16.5996 29.8096 17.2148ZM37.2012 15.7559L37.9219 11.3789H39.7148L38.5459 15.7559H37.2012ZM39.9346 22.1279L41.2793 21.3545C41.4258 21.7881 41.6953 22.1309 42.0879 22.3828C42.4863 22.6348 42.9609 22.7607 43.5117 22.7607C44.0332 22.7607 44.4609 22.6611 44.7949 22.4619C45.1289 22.2568 45.2959 21.9463 45.2959 21.5303C45.2959 21.3018 45.2227 21.1055 45.0762 20.9414C44.9355 20.7715 44.7451 20.6396 44.5049 20.5459C44.2705 20.4463 44.001 20.3496 43.6963 20.2559C43.3975 20.1562 43.0898 20.0684 42.7734 19.9922C42.4629 19.916 42.1553 19.8076 41.8506 19.667C41.5518 19.5264 41.2822 19.3682 41.042 19.1924C40.8076 19.0166 40.6172 18.7793 40.4707 18.4805C40.3301 18.1816 40.2598 17.8389 40.2598 17.4521C40.2598 16.667 40.5615 16.0225 41.165 15.5186C41.7686 15.0146 42.5273 14.7627 43.4414 14.7627C44.1738 14.7627 44.8242 14.9297 45.3926 15.2637C45.9609 15.5918 46.3916 16.0488 46.6846 16.6348L45.3662 17.373C45.2021 16.9863 44.9443 16.6992 44.5928 16.5117C44.2471 16.3184 43.8633 16.2217 43.4414 16.2217C43.002 16.2217 42.624 16.3271 42.3076 16.5381C41.9971 16.749 41.8418 17.0449 41.8418 17.4258C41.8418 17.6543 41.9121 17.8535 42.0527 18.0234C42.1992 18.1875 42.3896 18.3164 42.624 18.4102C42.8643 18.5039 43.1338 18.6006 43.4326 18.7002C43.7373 18.7939 44.0449 18.8789 44.3555 18.9551C44.6719 19.0312 44.9795 19.1396 45.2783 19.2803C45.583 19.4209 45.8525 19.582 46.0869 19.7637C46.3271 19.9395 46.5176 20.1797 46.6582 20.4844C46.8047 20.7891 46.8779 21.1377 46.8779 21.5303C46.8779 22.3506 46.5615 23.0068 45.9287 23.499C45.2959 23.9912 44.4902 24.2373 43.5117 24.2373C42.6387 24.2373 41.8916 24.0469 41.2705 23.666C40.6494 23.2793 40.2041 22.7666 39.9346 22.1279Z" fill="#010101"/>
<path opacity="0.3" d="M141.583 24V11.3965H143.253V22.418H148.693V24H141.583ZM149.959 21.8994C149.543 21.1729 149.335 20.373 149.335 19.5C149.335 18.627 149.543 17.8271 149.959 17.1006C150.381 16.374 150.955 15.8027 151.682 15.3867C152.408 14.9707 153.202 14.7627 154.063 14.7627C154.925 14.7627 155.719 14.9707 156.445 15.3867C157.178 15.8027 157.755 16.374 158.177 17.1006C158.604 17.8271 158.818 18.627 158.818 19.5C158.818 20.373 158.604 21.1729 158.177 21.8994C157.755 22.626 157.178 23.1973 156.445 23.6133C155.719 24.0293 154.925 24.2373 154.063 24.2373C153.202 24.2373 152.408 24.0293 151.682 23.6133C150.955 23.1973 150.381 22.626 149.959 21.8994ZM151.813 17.2148C151.204 17.8301 150.899 18.5918 150.899 19.5C150.899 20.4082 151.204 21.1699 151.813 21.7852C152.423 22.4004 153.173 22.708 154.063 22.708C154.966 22.708 155.722 22.4004 156.331 21.7852C156.946 21.1699 157.254 20.4082 157.254 19.5C157.254 18.5918 156.946 17.8301 156.331 17.2148C155.722 16.5996 154.966 16.292 154.063 16.292C153.173 16.292 152.423 16.5996 151.813 17.2148ZM160.77 21.9082C160.365 21.1816 160.163 20.3789 160.163 19.5C160.163 18.6211 160.365 17.8213 160.77 17.1006C161.18 16.374 161.745 15.8027 162.466 15.3867C163.192 14.9707 164.001 14.7627 164.892 14.7627C165.776 14.7627 166.573 14.9766 167.282 15.4043C167.997 15.832 168.527 16.4062 168.873 17.127L167.563 17.8828C167.335 17.4023 166.98 17.0186 166.5 16.7314C166.025 16.4385 165.489 16.292 164.892 16.292C163.989 16.292 163.236 16.5996 162.633 17.2148C162.029 17.8301 161.728 18.5918 161.728 19.5C161.728 20.4023 162.029 21.1582 162.633 21.7676C163.236 22.377 163.989 22.6816 164.892 22.6816C165.489 22.6816 166.028 22.541 166.509 22.2598C166.989 21.9727 167.358 21.5918 167.616 21.1172L168.943 21.8906C168.562 22.6055 168.009 23.1768 167.282 23.6045C166.562 24.0264 165.765 24.2373 164.892 24.2373C164.001 24.2373 163.192 24.0293 162.466 23.6133C161.745 23.1973 161.18 22.6289 160.77 21.9082ZM170.473 21.8994C170.068 21.1729 169.866 20.373 169.866 19.5C169.866 18.627 170.068 17.8271 170.473 17.1006C170.883 16.374 171.437 15.8027 172.134 15.3867C172.831 14.9707 173.593 14.7627 174.419 14.7627C175.163 14.7627 175.822 14.9209 176.396 15.2373C176.977 15.5479 177.451 15.9844 177.82 16.5469V15H179.385V24H177.82V22.4531C177.451 23.0156 176.977 23.4551 176.396 23.7715C175.822 24.082 175.163 24.2373 174.419 24.2373C173.593 24.2373 172.831 24.0293 172.134 23.6133C171.437 23.1973 170.883 22.626 170.473 21.8994ZM172.345 17.1973C171.735 17.8125 171.431 18.5801 171.431 19.5C171.431 20.4199 171.735 21.1875 172.345 21.8027C172.954 22.418 173.71 22.7256 174.612 22.7256C175.521 22.7256 176.282 22.418 176.897 21.8027C177.513 21.1875 177.82 20.4199 177.82 19.5C177.82 18.5801 177.513 17.8125 176.897 17.1973C176.282 16.582 175.521 16.2744 174.612 16.2744C173.71 16.2744 172.954 16.582 172.345 17.1973ZM180.914 16.5117V15H182.698V12.9521L184.263 12.4775V15H186.653V16.5117H184.263V21.3896C184.263 21.8291 184.351 22.1426 184.526 22.3301C184.702 22.5059 184.966 22.5996 185.317 22.6113C185.411 22.6113 185.517 22.6143 185.634 22.6201C185.927 22.6201 186.267 22.6113 186.653 22.5938V24C186.231 24.0586 185.845 24.0879 185.493 24.0879C184.708 24.0879 184.093 23.9473 183.647 23.666C183.015 23.2617 182.698 22.5029 182.698 21.3896V16.5117H180.914ZM188.543 13.0664C188.338 12.8613 188.235 12.6123 188.235 12.3193C188.235 12.0264 188.338 11.7773 188.543 11.5723C188.748 11.3613 189 11.2559 189.299 11.2559C189.586 11.2559 189.832 11.3613 190.037 11.5723C190.242 11.7773 190.345 12.0264 190.345 12.3193C190.345 12.6064 190.242 12.8525 190.037 13.0576C189.832 13.2627 189.586 13.3652 189.299 13.3652C189 13.3652 188.748 13.2656 188.543 13.0664ZM188.508 24V15H190.072V24H188.508ZM191.962 19.5C191.962 18.1523 192.401 17.0273 193.28 16.125C194.159 15.2168 195.29 14.7627 196.673 14.7627C197.552 14.7627 198.337 14.9854 199.028 15.4307C199.72 15.8701 200.247 16.4502 200.61 17.1709C200.974 17.8916 201.155 18.6738 201.155 19.5176C201.155 19.752 201.138 19.9863 201.103 20.2207H193.562C193.714 21.0176 194.083 21.6416 194.669 22.0928C195.255 22.5381 195.973 22.7607 196.822 22.7607C197.414 22.7607 197.933 22.6406 198.378 22.4004C198.829 22.1543 199.175 21.835 199.415 21.4424L200.742 22.1982C200.332 22.8311 199.787 23.3291 199.107 23.6924C198.434 24.0557 197.66 24.2373 196.787 24.2373C195.357 24.2373 194.194 23.7891 193.298 22.8926C192.407 21.9961 191.962 20.8652 191.962 19.5ZM193.562 18.8496H199.573C199.444 18 199.107 17.3525 198.562 16.9072C198.023 16.4619 197.394 16.2393 196.673 16.2393C195.835 16.2393 195.138 16.4766 194.581 16.9512C194.03 17.4258 193.69 18.0586 193.562 18.8496Z" fill="#808080"/>
<rect x="64" width="62" height="36" rx="18" fill="#DADAD9"/>
<rect x="70" y="6" width="24" height="24" rx="12" fill="#FEFEFE"/>
</svg>
