<svg width="24" height="21" viewBox="0 0 24 21" fill="none" xmlns="http://www.w3.org/2000/svg">
<path d="M21.1493 5.10751C20.1847 3.54929 18.831 2.25446 17.2344 1.36299C15.6375 0.471329 13.8276 0 12.0006 0C12.0005 0 12.0004 0 12.0003 0C12.0001 0 11.9999 0 11.9997 0C11.9996 0 11.9995 0 11.9994 0C10.1723 0 8.36247 0.471329 6.76553 1.36299C5.16897 2.25446 3.81526 3.54929 2.85062 5.10751C2.72166 5.31587 2.71046 5.57635 2.82109 5.79498C3.07421 6.29542 3.92551 7.14278 5.5104 7.14437C5.51228 7.14437 5.51415 7.14437 5.51603 7.14437C6.62959 7.14437 7.36047 6.79886 7.80944 6.46122C8.38333 6.86247 9.42977 7.30225 11.2969 7.39305V11.7822H6.79928C6.41097 11.7822 6.09616 12.097 6.09616 12.4853C6.09616 12.8736 6.41097 13.1884 6.79928 13.1884H8.13274V19.6978C8.13274 20.0861 8.44755 20.4009 8.83586 20.4009C9.22418 20.4009 9.53899 20.0861 9.53899 19.6978V13.1884H14.4846V19.6978C14.4846 20.0861 14.7994 20.4009 15.1877 20.4009C15.576 20.4009 15.8908 20.0861 15.8908 19.6978V13.1884H17.3401C17.7284 13.1884 18.0433 12.8736 18.0433 12.4853C18.0433 12.097 17.7284 11.7822 17.3401 11.7822H12.7031V7.39436C14.5718 7.30661 15.6184 6.86542 16.1922 6.46239C16.6412 6.79965 17.3717 7.14433 18.484 7.14433C18.4858 7.14433 18.4879 7.14433 18.4896 7.14433C20.0745 7.14273 20.9258 6.29537 21.179 5.79493C21.2895 5.57635 21.2783 5.31587 21.1493 5.10751ZM7.11644 5.20435C6.93967 5.38342 6.46937 5.73817 5.51575 5.73817C5.51444 5.73817 5.51303 5.73817 5.51176 5.73817C4.92147 5.73756 4.55045 5.56956 4.33239 5.41225C5.42992 3.83616 6.94881 2.66377 8.68788 2.0071C7.77981 2.93846 7.2437 4.0254 7.11644 5.20435ZM12.0156 6.0039C9.7391 6.0039 8.83014 5.48378 8.52855 5.23904C8.8503 2.9633 11.245 1.7783 11.9999 1.45866C12.7565 1.7791 15.1508 2.96457 15.4715 5.24054C15.173 5.48471 14.2727 6.0039 12.0156 6.0039ZM18.4881 5.73812C18.4868 5.73812 18.4855 5.73812 18.4842 5.73812C17.5306 5.73812 17.0602 5.38332 16.8835 5.20426C16.7562 4.0253 16.2201 2.93841 15.312 2.00705C17.0511 2.66377 18.57 3.83612 19.6675 5.4122C19.4495 5.56951 19.0785 5.73751 18.4881 5.73812Z" fill="black"/>
<path d="M5.31766 14.6197H2.01235L1.40077 9.76258C1.35231 9.37727 1.0006 9.10436 0.615335 9.15278C0.230069 9.2013 -0.0429317 9.55296 0.005584 9.93827L0.68982 15.3725V19.707C0.68982 20.0954 1.00463 20.4102 1.39295 20.4102C1.78126 20.4102 2.09607 20.0954 2.09607 19.707V16.0259H4.61462V19.707C4.61462 20.0953 4.92944 20.4101 5.31775 20.4101C5.70606 20.4101 6.02088 20.0953 6.02088 19.707V15.3229C6.02078 14.9345 5.70602 14.6197 5.31766 14.6197Z" fill="black"/>
<path d="M23.3847 9.1528C22.9995 9.10428 22.6478 9.37733 22.5993 9.7626L21.9877 14.6197H18.6824C18.2941 14.6197 17.9792 14.9345 17.9792 15.3228V19.707C17.9792 20.0953 18.2941 20.4101 18.6824 20.4101C19.0707 20.4101 19.3855 20.0953 19.3855 19.707V16.0259H21.904V19.707C21.904 20.0953 22.2189 20.4101 22.6072 20.4101C22.9955 20.4101 23.3103 20.0953 23.3103 19.707V15.3725L23.9945 9.93824C24.043 9.55297 23.77 9.20132 23.3847 9.1528Z" fill="black"/>
</svg>
