<svg width="19" height="24" viewBox="0 0 19 24" fill="none" xmlns="http://www.w3.org/2000/svg">
<path d="M18.2812 14.8594V13.4531C18.2812 12.29 17.335 11.3438 16.1719 11.3438H7.73438C7.48786 11.3438 7.25133 11.3866 7.03125 11.4647V4.09781C7.84964 3.80756 8.4375 3.02602 8.4375 2.10938C8.4375 0.946266 7.49123 0 6.32812 0H0.703125C0.314812 0 0 0.314812 0 0.703125C0 2.00203 0 12.2524 0 13.4531C0 14.3698 0.587859 15.1513 1.40625 15.4416V17.6719C1.40625 18.9618 1.91508 20.1997 2.8125 21.1163V23.2969C2.8125 23.6852 3.12731 24 3.51562 24C4.32797 24 15.4615 24 16.1719 24C16.5602 24 16.875 23.6852 16.875 23.2969C16.875 22.9086 16.5602 22.5938 16.1719 22.5938H14.0625V21.7504C16.6401 20.4348 18.2812 17.7789 18.2812 14.8594ZM7.73438 12.75H16.1719C16.5596 12.75 16.875 13.0654 16.875 13.4531V14.1562H7.03125V13.4531C7.03125 13.0654 7.34667 12.75 7.73438 12.75ZM1.40625 1.40625H6.32812C6.71583 1.40625 7.03125 1.72167 7.03125 2.10938C7.03125 2.49708 6.71583 2.8125 6.32812 2.8125H1.40625V1.40625ZM2.10938 14.1562C1.72167 14.1562 1.40625 13.8408 1.40625 13.4531V4.21875H5.625C5.625 5.03391 5.625 13.6065 5.625 14.1562H2.10938ZM13.0778 20.6612C12.8218 20.7731 12.6562 21.0261 12.6562 21.3055V22.5938H4.21875V20.8164C4.21875 20.6164 4.13358 20.4258 3.98456 20.2925C3.23967 19.6258 2.8125 18.6706 2.8125 17.6719V15.5578C4.43133 15.5578 16.713 15.5578 16.836 15.5578C16.5874 17.7887 15.1676 19.7482 13.0778 20.6612Z" fill="black"/>
</svg>
