<svg width="14" height="15" viewBox="0 0 14 15" fill="none" xmlns="http://www.w3.org/2000/svg">
<path d="M12 15H1.5C1.10218 15 0.720644 14.842 0.43934 14.5607C0.158035 14.2794 0 13.8978 0 13.5V3C0 2.60218 0.158035 2.22064 0.43934 1.93934C0.720644 1.65804 1.10218 1.5 1.5 1.5H3V0H4.5V1.5H9V0H10.5V1.5H12C12.3978 1.5 12.7794 1.65804 13.0607 1.93934C13.342 2.22064 13.5 2.60218 13.5 3V13.5C13.5 13.8978 13.342 14.2794 13.0607 14.5607C12.7794 14.842 12.3978 15 12 15ZM1.5 6V13.5H12V6H1.5ZM1.5 3V4.5H12V3H1.5ZM10.5 12H9V10.5H10.5V12ZM7.5 12H6V10.5H7.5V12ZM4.5 12H3V10.5H4.5V12ZM10.5 9H9V7.5H10.5V9ZM7.5 9H6V7.5H7.5V9ZM4.5 9H3V7.5H4.5V9Z" fill="white"/>
</svg>
