<svg width="22" height="24" viewBox="0 0 22 24" fill="none" xmlns="http://www.w3.org/2000/svg">
<path d="M19.2 7.35H19.35V7.2V3.6C19.35 3.24196 19.2078 2.89858 18.9546 2.64541C18.7014 2.39223 18.358 2.25 18 2.25H3.6C3.24196 2.25 2.89858 2.39223 2.64541 2.64541C2.39223 2.89858 2.25 3.24196 2.25 3.6V7.2V7.35H2.4H19.2ZM19.35 9.6V9.45H19.2H2.4H2.25V9.6V20.4C2.25 20.758 2.39223 21.1014 2.64541 21.3546C2.89858 21.6078 3.24196 21.75 3.6 21.75H18C18.358 21.75 18.7014 21.6078 18.9546 21.3546C19.2078 21.1014 19.35 20.758 19.35 20.4V9.6ZM0.15 3.6C0.15 2.685 0.513481 1.80748 1.16048 1.16048C1.80748 0.513481 2.685 0.15 3.6 0.15H18C18.915 0.15 19.7925 0.513481 20.4395 1.16048C21.0865 1.80748 21.45 2.685 21.45 3.6V20.4C21.45 21.315 21.0865 22.1925 20.4395 22.8395C19.7925 23.4865 18.915 23.85 18 23.85H3.6C2.685 23.85 1.80748 23.4865 1.16048 22.8395C0.513481 22.1925 0.15 21.315 0.15 20.4V3.6ZM4.05754 4.05754C4.25445 3.86063 4.52152 3.75 4.8 3.75H7.2C7.47848 3.75 7.74555 3.86062 7.94246 4.05754C8.13938 4.25445 8.25 4.52152 8.25 4.8C8.25 5.07848 8.13938 5.34555 7.94246 5.54246C7.74555 5.73938 7.47848 5.85 7.2 5.85H4.8C4.52152 5.85 4.25445 5.73938 4.05754 5.54246C3.86063 5.34555 3.75 5.07848 3.75 4.8C3.75 4.52152 3.86063 4.25445 4.05754 4.05754ZM13.9425 5.54246C13.7455 5.73938 13.4785 5.85 13.2 5.85C12.9215 5.85 12.6545 5.73938 12.4575 5.54246C12.2606 5.34555 12.15 5.07848 12.15 4.8C12.15 4.52152 12.2606 4.25445 12.4575 4.05754C12.6545 3.86063 12.9215 3.75 13.2 3.75C13.4785 3.75 13.7455 3.86062 13.9425 4.05754C14.1394 4.25445 14.25 4.52152 14.25 4.8C14.25 5.07848 14.1394 5.34555 13.9425 5.54246ZM17.85 4.8C17.85 5.07848 17.7394 5.34555 17.5425 5.54246C17.3456 5.73938 17.0785 5.85 16.8 5.85C16.5215 5.85 16.2545 5.73938 16.0575 5.54246C15.8606 5.34555 15.75 5.07848 15.75 4.8C15.75 4.52152 15.8606 4.25445 16.0575 4.05754C16.2545 3.86063 16.5215 3.75 16.8 3.75C17.0785 3.75 17.3456 3.86063 17.5425 4.05754C17.7394 4.25445 17.85 4.52152 17.85 4.8ZM12.6031 17.4031C13.0813 16.9249 13.35 16.2763 13.35 15.6C13.35 14.9237 13.0813 14.2751 12.6031 13.7969C12.1249 13.3187 11.4763 13.05 10.8 13.05C10.1237 13.05 9.4751 13.3187 8.99688 13.7969C8.51866 14.2751 8.25 14.9237 8.25 15.6C8.25 16.2763 8.51866 16.9249 8.99688 17.4031C9.4751 17.8813 10.1237 18.15 10.8 18.15C11.4763 18.15 12.1249 17.8813 12.6031 17.4031ZM15.45 15.6C15.45 16.8333 14.9601 18.016 14.088 18.888C13.216 19.7601 12.0333 20.25 10.8 20.25C9.56674 20.25 8.384 19.7601 7.51195 18.888C6.63991 18.016 6.15 16.8333 6.15 15.6C6.15 14.3667 6.63991 13.184 7.51195 12.312C8.384 11.4399 9.56674 10.95 10.8 10.95C12.0333 10.95 13.216 11.4399 14.088 12.312C14.9601 13.184 15.45 14.3667 15.45 15.6Z" fill="black" stroke="#F7F7F7" stroke-width="0.3"/>
</svg>
