<svg width="24" height="24" viewBox="0 0 24 24" fill="none" xmlns="http://www.w3.org/2000/svg">
<path d="M1.60034 16.9821C3.26807 15.3144 5.98133 15.3144 7.64906 16.982C7.64924 16.9821 7.64924 16.9821 7.64942 16.9823C10.0532 19.3859 13.9444 19.3867 16.3491 16.9825C16.3493 16.9823 16.3495 16.9821 16.3499 16.9818C18.0174 15.3144 20.7307 15.3144 22.3982 16.9821C22.7644 17.3482 23.3581 17.3482 23.7241 16.9821C24.0901 16.6159 24.0901 16.0225 23.7241 15.6563C21.8064 13.7386 18.9274 13.3544 16.6242 14.5029V2.78101C16.6242 2.28131 17.0307 1.87482 17.5304 1.87482C18.03 1.87482 18.4365 2.2815 18.4365 2.78101C18.4365 3.29883 18.8562 3.71851 19.374 3.71851C19.8917 3.71851 20.3114 3.29883 20.3114 2.78101C20.3114 1.24768 19.0639 0 17.5304 0C15.9968 0 14.7492 1.24768 14.7492 2.78101V5.53089H9.24958V2.78101C9.24958 2.28131 9.65608 1.87482 10.1556 1.87482C10.6555 1.87482 11.0618 2.2815 11.0618 2.78101C11.0618 3.29883 11.4816 3.71851 11.9993 3.71851C12.5171 3.71851 12.9368 3.29883 12.9368 2.78101C12.9368 1.24768 11.6893 0 10.1556 0C8.62226 0 7.37458 1.24768 7.37458 2.78101V14.5029C5.07129 13.3544 2.19232 13.7388 0.274658 15.6563C-0.0915528 16.0225 -0.0915528 16.6159 0.274658 16.9821C0.640687 17.3482 1.23432 17.3482 1.60034 16.9821V16.9821ZM9.24958 15.9071V12.9368H14.7492V15.9071C13.1871 17.2233 10.8594 17.2634 9.24958 15.9071ZM14.7492 7.40589V11.0618H9.24958V7.40589H14.7492ZM23.7241 20.8709C24.0901 21.2371 24.0901 21.8306 23.7241 22.1966C23.3581 22.5628 22.7644 22.5628 22.3982 22.1966C20.7307 20.5291 18.017 20.5291 16.3495 22.1966C13.945 24.6013 10.0534 24.601 7.64924 22.1966C5.98151 20.5291 3.26807 20.5291 1.60034 22.1966C1.23432 22.5628 0.640687 22.5628 0.274658 22.1966C-0.0913697 21.8306 -0.0915528 21.237 0.274658 20.8709C2.67334 18.4723 6.57624 18.4723 8.97492 20.8709C10.6467 22.5427 13.3524 22.5425 15.0238 20.8709C17.4225 18.4723 21.3254 18.4723 23.7241 20.8709Z" fill="black"/>
</svg>
